<svg width="593" height="808" viewBox="0 0 593 808" fill="none" xmlns="http://www.w3.org/2000/svg">
<g filter="url(#filter0_g_118_16)">
<path d="M1.5 56.5C1.5 26.1243 26.1243 1.5 56.5 1.5H576.457C584.741 1.5 591.457 8.21573 591.457 16.5V790.512C591.457 798.796 584.741 805.512 576.457 805.512H56.5C26.1244 805.512 1.5 780.887 1.5 750.512V56.5Z" fill="#CCB79E"/>
</g>
<g filter="url(#filter1_g_118_16)">
<g filter="url(#filter2_d_118_16)">
<rect x="57.2224" y="54.2288" width="514.984" height="707" rx="20" fill="white"/>
</g>
<g filter="url(#filter3_d_118_16)">
<rect x="66.4736" y="45.2288" width="514.984" height="707" rx="20" fill="white"/>
</g>
<path d="M88.0597 88.2287C88.0597 77.1831 97.014 68.2288 108.06 68.2288H539.871C550.917 68.2288 559.871 77.1831 559.871 88.2288V709.229C559.871 720.274 550.917 729.229 539.871 729.229H108.06C97.014 729.229 88.0597 720.274 88.0597 709.229V88.2287Z" fill="white"/>
<path d="M103.996 728.975C104.103 727.599 105.306 726.569 106.682 726.675C106.892 726.691 107.104 726.702 107.317 726.711C107.354 726.713 107.392 726.715 107.43 726.716C107.639 726.723 107.849 726.729 108.06 726.729V731.729C107.872 731.729 107.684 731.726 107.497 731.721C107.094 731.711 106.693 731.691 106.295 731.66C104.919 731.553 103.89 730.351 103.996 728.975ZM113.457 726.729C114.838 726.729 115.957 727.848 115.957 729.229C115.957 730.609 114.838 731.729 113.457 731.729H108.06V726.729H113.457ZM167.434 726.729C168.814 726.729 169.934 727.848 169.934 729.229C169.934 730.609 168.814 731.729 167.434 731.729H135.048C133.667 731.729 132.548 730.609 132.548 729.229C132.548 727.848 133.667 726.729 135.048 726.729H167.434ZM221.41 726.729C222.791 726.729 223.91 727.848 223.91 729.229C223.91 730.609 222.791 731.729 221.41 731.729H210.614C209.234 731.729 208.114 730.609 208.114 729.229C208.114 727.848 209.234 726.729 210.614 726.729H221.41ZM275.387 726.729C276.767 726.729 277.887 727.848 277.887 729.229C277.887 730.609 276.767 731.729 275.387 731.729H243.001C241.62 731.729 240.501 730.609 240.501 729.229C240.501 727.848 241.62 726.729 243.001 726.729H275.387ZM329.363 726.729C330.744 726.729 331.863 727.848 331.863 729.229C331.863 730.609 330.744 731.729 329.363 731.729H318.568C317.187 731.729 316.068 730.609 316.068 729.229C316.068 727.848 317.187 726.729 318.568 726.729H329.363ZM383.339 726.729C384.72 726.729 385.839 727.848 385.839 729.229C385.839 730.609 384.72 731.729 383.339 731.729H350.953C349.573 731.729 348.453 730.609 348.453 729.229C348.453 727.848 349.573 726.729 350.953 726.729H383.339ZM437.316 726.729C438.696 726.729 439.816 727.848 439.816 729.229C439.816 730.609 438.696 731.729 437.316 731.729H426.521C425.14 731.729 424.021 730.609 424.021 729.229C424.021 727.848 425.14 726.729 426.521 726.729H437.316ZM491.292 726.729C492.673 726.729 493.792 727.848 493.792 729.229C493.792 730.609 492.673 731.729 491.292 731.729H458.906C457.526 731.729 456.406 730.609 456.406 729.229C456.406 727.848 457.526 726.729 458.906 726.729H491.292ZM541.519 726.669C542.779 726.706 543.835 727.689 543.935 728.975C543.995 729.751 543.692 730.472 543.171 730.972C541.32 731.464 539.377 731.729 537.371 731.729H534.474C533.093 731.729 531.974 730.609 531.974 729.229C531.974 727.848 533.093 726.729 534.474 726.729H539.871C540.426 726.729 540.975 726.708 541.519 726.669ZM555.79 719.822C556.116 719.918 556.429 720.082 556.704 720.318C556.761 720.366 556.813 720.417 556.864 720.469C554.456 724.637 550.75 727.959 546.298 729.886C545.829 729.621 545.44 729.205 545.218 728.669C544.822 727.715 545.06 726.656 545.739 725.961C549.786 724.876 553.285 722.699 555.79 719.822ZM88.6193 714.575C89.8947 714.047 91.358 714.652 91.8868 715.927C91.8963 715.95 91.9065 715.973 91.9161 715.995C91.9465 716.068 91.9777 716.139 92.0089 716.211C92.0409 716.285 92.0726 716.358 92.1056 716.431C92.1685 716.57 92.2335 716.708 92.2999 716.845C92.3064 716.858 92.313 716.872 92.3195 716.885C92.3825 717.014 92.4467 717.143 92.5128 717.271C92.5439 717.331 92.5758 717.39 92.6075 717.449C92.6492 717.528 92.6917 717.605 92.7345 717.683C92.7639 717.736 92.7934 717.789 92.8234 717.842C92.8794 717.941 92.9364 718.039 92.9943 718.137C93.0202 718.181 93.0461 718.224 93.0724 718.268C93.2353 718.537 93.4054 718.802 93.5822 719.062C93.6052 719.096 93.6282 719.13 93.6515 719.163C93.7232 719.267 93.7964 719.37 93.8702 719.472C93.8966 719.508 93.9227 719.545 93.9493 719.581C94.0055 719.658 94.0628 719.733 94.1202 719.809C94.1641 719.867 94.2075 719.925 94.2521 719.982C94.3333 720.086 94.4156 720.189 94.4991 720.291C94.5063 720.3 94.5134 720.309 94.5206 720.318C94.622 720.441 94.7255 720.563 94.8302 720.684C94.8689 720.728 94.9083 720.772 94.9474 720.817C95.0213 720.9 95.0955 720.984 95.171 721.066C95.2062 721.104 95.2419 721.142 95.2775 721.18C95.3475 721.255 95.4181 721.329 95.4894 721.403C95.5373 721.452 95.5854 721.501 95.6339 721.55C95.6978 721.614 95.7624 721.678 95.8273 721.741C95.8692 721.782 95.9109 721.824 95.9532 721.865C96.178 722.08 96.4087 722.289 96.6447 722.492C96.6616 722.507 96.6784 722.523 96.6954 722.537C97.7446 723.435 97.8679 725.012 96.9708 726.062C96.0755 727.109 94.5027 727.233 93.4532 726.342C93.4455 726.335 93.4375 726.329 93.4298 726.323C90.7787 724.052 88.6615 721.173 87.2931 717.899C87.2817 717.871 87.2702 717.844 87.2589 717.817C86.7483 716.547 87.3525 715.101 88.6193 714.575ZM85.5597 709.229V704.054C85.5597 702.673 86.679 701.554 88.0597 701.554C89.4404 701.554 90.5597 702.673 90.5597 704.054V709.229C90.5597 709.439 90.564 709.649 90.5714 709.858C90.5727 709.895 90.5747 709.933 90.5763 709.971C90.5852 710.184 90.597 710.395 90.6134 710.606L90.6202 710.862C90.5903 712.128 89.6049 713.192 88.3146 713.292C86.9381 713.399 85.7351 712.37 85.6281 710.993C85.6097 710.758 85.597 710.52 85.5861 710.282C85.57 709.933 85.5597 709.582 85.5597 709.229ZM559.871 709.229C559.871 710.611 559.745 711.964 559.506 713.278C559.449 713.271 559.393 713.264 559.338 713.253C559.686 711.961 559.871 710.614 559.871 709.229ZM85.5597 662.654V631.604C85.5597 630.223 86.679 629.104 88.0597 629.104C89.4404 629.104 90.5597 630.223 90.5597 631.604V662.654C90.5597 664.034 89.4404 665.154 88.0597 665.154C86.679 665.154 85.5597 664.034 85.5597 662.654ZM85.5597 610.904V600.554C85.5597 599.173 86.679 598.054 88.0597 598.054C89.4404 598.054 90.5597 599.173 90.5597 600.554V610.904C90.5597 612.284 89.4404 613.404 88.0597 613.404C86.679 613.404 85.5597 612.284 85.5597 610.904ZM85.5597 559.154V528.104C85.5597 526.723 86.679 525.604 88.0597 525.604C89.4404 525.604 90.5597 526.723 90.5597 528.104V559.154C90.5597 560.534 89.4404 561.654 88.0597 561.654C86.679 561.654 85.5597 560.534 85.5597 559.154ZM85.5597 507.404V497.054C85.5597 495.673 86.679 494.554 88.0597 494.554C89.4404 494.554 90.5597 495.673 90.5597 497.054V507.404C90.5597 508.784 89.4404 509.904 88.0597 509.904C86.679 509.904 85.5597 508.784 85.5597 507.404ZM85.5597 455.654V424.604C85.5597 423.223 86.679 422.104 88.0597 422.104C89.4404 422.104 90.5597 423.223 90.5597 424.604V455.654C90.5597 457.034 89.4404 458.154 88.0597 458.154C86.679 458.154 85.5597 457.034 85.5597 455.654ZM85.5597 403.904V393.554C85.5597 392.173 86.679 391.054 88.0597 391.054C89.4404 391.054 90.5597 392.173 90.5597 393.554V403.904C90.5597 405.284 89.4404 406.404 88.0597 406.404C86.679 406.404 85.5597 405.284 85.5597 403.904ZM85.5597 352.154V321.104C85.5597 319.723 86.679 318.604 88.0597 318.604C89.4404 318.604 90.5597 319.723 90.5597 321.104V352.154C90.5597 353.534 89.4404 354.654 88.0597 354.654C86.679 354.654 85.5597 353.534 85.5597 352.154ZM85.5597 300.404V290.054C85.5597 288.673 86.679 287.554 88.0597 287.554C89.4404 287.554 90.5597 288.673 90.5597 290.054V300.404C90.5597 301.784 89.4404 302.904 88.0597 302.904C86.679 302.904 85.5597 301.784 85.5597 300.404ZM85.5597 248.654V217.604C85.5597 216.223 86.679 215.104 88.0597 215.104C89.4404 215.104 90.5597 216.223 90.5597 217.604V248.654C90.5597 250.034 89.4404 251.154 88.0597 251.154C86.679 251.154 85.5597 250.034 85.5597 248.654ZM85.5597 196.904V186.554C85.5597 185.173 86.679 184.054 88.0597 184.054C89.4404 184.054 90.5597 185.173 90.5597 186.554V196.904C90.5597 198.284 89.4404 199.404 88.0597 199.404C86.679 199.404 85.5597 198.284 85.5597 196.904ZM85.5597 145.154V114.104C85.5597 112.723 86.679 111.604 88.0597 111.604C89.4404 111.604 90.5597 112.723 90.5597 114.104V145.154C90.5597 146.534 89.4404 147.654 88.0597 147.654C86.679 147.654 85.5597 146.534 85.5597 145.154ZM85.5597 93.4036V88.2288C85.5597 87.8752 85.5699 87.5236 85.5861 87.1741C85.597 86.9366 85.6097 86.6997 85.6281 86.4641C85.7351 85.0877 86.9381 84.0583 88.3146 84.1653C89.6907 84.2724 90.7189 85.4747 90.6124 86.8508C90.596 87.0614 90.5852 87.273 90.5763 87.4856C90.5747 87.5233 90.5727 87.5611 90.5714 87.5989C90.564 87.8079 90.5597 88.0179 90.5597 88.2288V93.4036C90.5597 94.7843 89.4404 95.9036 88.0597 95.9036C86.679 95.9036 85.5597 94.7843 85.5597 93.4036ZM559.506 84.179C559.745 85.4928 559.871 86.8461 559.871 88.2288C559.871 86.8434 559.686 85.4959 559.338 84.2034C559.393 84.1928 559.449 84.1859 559.506 84.179ZM551.646 70.8362C555.354 73.8832 558.068 78.0934 559.235 82.9084C559.144 82.9429 559.053 82.9711 558.96 82.9944C557.511 78.9452 554.427 75.5295 550.383 73.3391C550.296 72.6631 550.482 71.9546 550.96 71.3958C551.159 71.1628 551.393 70.9768 551.646 70.8362ZM99.4708 67.428C100.74 66.9167 102.187 67.5213 102.713 68.7883C103.242 70.0637 102.637 71.527 101.361 72.0559C101.338 72.0655 101.315 72.0755 101.292 72.0852C101.227 72.1124 101.163 72.1412 101.099 72.1692C100.987 72.2179 100.875 72.2676 100.764 72.3186C100.656 72.368 100.549 72.4175 100.443 72.469C100.402 72.4887 100.361 72.5085 100.32 72.5286C100.219 72.5788 100.117 72.6297 100.017 72.6819C99.9568 72.7129 99.8975 72.7449 99.838 72.7766C99.7598 72.8183 99.6821 72.8607 99.6046 72.9036C99.5449 72.9366 99.4852 72.9695 99.4259 73.0032C99.3335 73.0557 99.2418 73.1092 99.1505 73.1633C99.1068 73.1892 99.0631 73.2152 99.0197 73.2415C98.7447 73.4076 98.4749 73.5813 98.2101 73.762C98.1832 73.7803 98.1568 73.7992 98.13 73.8176C98.0283 73.8878 97.9274 73.9592 97.8273 74.0315C97.787 74.0606 97.7462 74.089 97.7062 74.1184C97.6232 74.1794 97.541 74.2415 97.4591 74.304C97.4231 74.3314 97.3865 74.3582 97.3507 74.386L97.255 74.4612C97.0276 74.6399 96.8051 74.8244 96.587 75.0139C96.548 75.0478 96.5095 75.0822 96.4708 75.1165C96.3872 75.1904 96.3039 75.2646 96.2218 75.3401C96.1835 75.3753 96.1456 75.411 96.1075 75.4465C96.0327 75.5165 95.9585 75.5872 95.8849 75.6584C95.8576 75.6849 95.83 75.7109 95.8029 75.7375L95.6857 75.8547C95.6388 75.9016 95.5924 75.9489 95.546 75.9963C95.505 76.0383 95.4636 76.0799 95.423 76.1223C95.2076 76.3471 94.9983 76.5777 94.795 76.8137C94.7805 76.8306 94.7655 76.8476 94.7511 76.8645C93.8539 77.9136 92.276 78.037 91.2267 77.1399C90.1795 76.2447 90.0547 74.6718 90.9454 73.6223C90.952 73.6146 90.9584 73.6066 90.965 73.5989C93.2358 70.9477 96.1148 68.8306 99.3888 67.4622C99.4161 67.4507 99.4434 67.4393 99.4708 67.428ZM113.457 65.7288C114.838 65.7288 115.957 66.848 115.957 68.2288C115.957 69.6095 114.838 70.7288 113.457 70.7288H108.06C107.849 70.7288 107.639 70.7331 107.43 70.7405C107.392 70.7418 107.354 70.7438 107.317 70.7454C107.104 70.7542 106.892 70.7651 106.682 70.7815C105.306 70.888 104.103 69.8597 103.996 68.4836C103.889 67.1072 104.919 65.9042 106.295 65.7971C106.878 65.7519 107.466 65.7288 108.06 65.7288H113.457ZM537.371 65.7288C539.377 65.7288 541.32 65.9932 543.171 66.4856C543.692 66.986 543.995 67.707 543.935 68.4836C543.835 69.7689 542.779 70.7501 541.519 70.7874C540.975 70.7486 540.426 70.7288 539.871 70.7288H534.474C533.093 70.7288 531.974 69.6095 531.974 68.2288C531.974 66.848 533.093 65.7288 534.474 65.7288H537.371ZM189.025 65.7288C190.405 65.7289 191.525 66.8481 191.525 68.2288C191.525 69.6094 190.405 70.7286 189.025 70.7288H156.639C155.258 70.7288 154.139 69.6095 154.139 68.2288C154.139 66.848 155.258 65.7288 156.639 65.7288H189.025ZM221.41 65.7288C222.791 65.7288 223.91 66.8481 223.91 68.2288C223.91 69.6094 222.791 70.7287 221.41 70.7288H210.615C209.235 70.7288 208.115 69.6095 208.115 68.2288C208.115 66.848 209.235 65.7288 210.615 65.7288H221.41ZM296.977 65.7288C298.357 65.7288 299.477 66.848 299.477 68.2288C299.477 69.6095 298.357 70.7288 296.977 70.7288H264.591C263.21 70.7286 262.091 69.6094 262.091 68.2288C262.091 66.8482 263.21 65.7289 264.591 65.7288H296.977ZM329.363 65.7288C330.744 65.729 331.863 66.8482 331.863 68.2288C331.863 69.6093 330.744 70.7285 329.363 70.7288H318.568C317.187 70.7287 316.068 69.6094 316.068 68.2288C316.068 66.8481 317.187 65.7289 318.568 65.7288H329.363ZM404.93 65.7288C406.311 65.7288 407.43 66.848 407.43 68.2288C407.43 69.6095 406.311 70.7288 404.93 70.7288H372.544C371.163 70.7287 370.044 69.6095 370.044 68.2288C370.044 66.8481 371.163 65.7288 372.544 65.7288H404.93ZM437.316 65.7288C438.696 65.7288 439.816 66.848 439.816 68.2288C439.816 69.6095 438.696 70.7288 437.316 70.7288H426.521C425.14 70.7288 424.021 69.6095 424.021 68.2288C424.021 66.848 425.14 65.7288 426.521 65.7288H437.316ZM512.883 65.7288C514.264 65.7288 515.383 66.8481 515.383 68.2288C515.383 69.6094 514.264 70.7287 512.883 70.7288H480.497C479.116 70.7288 477.997 69.6095 477.997 68.2288C477.997 66.848 479.116 65.7288 480.497 65.7288H512.883Z" fill="#875C3D" fill-opacity="0.25"/>
</g>
<defs>
<filter id="filter0_g_118_16" x="0" y="0" width="592.957" height="807.012" filterUnits="userSpaceOnUse" color-interpolation-filters="sRGB">
<feFlood flood-opacity="0" result="BackgroundImageFix"/>
<feBlend mode="normal" in="SourceGraphic" in2="BackgroundImageFix" result="shape"/>
<feTurbulence type="fractalNoise" baseFrequency="0.99900001287460327 0.99900001287460327" numOctaves="3" seed="9388" />
<feDisplacementMap in="shape" scale="3" xChannelSelector="R" yChannelSelector="G" result="displacedImage" width="100%" height="100%" />
<feMerge result="effect1_texture_118_16">
<feMergeNode in="displacedImage"/>
</feMerge>
</filter>
<filter id="filter1_g_118_16" x="53.2224" y="41.2288" width="532.235" height="724" filterUnits="userSpaceOnUse" color-interpolation-filters="sRGB">
<feFlood flood-opacity="0" result="BackgroundImageFix"/>
<feBlend mode="normal" in="SourceGraphic" in2="BackgroundImageFix" result="shape"/>
<feTurbulence type="fractalNoise" baseFrequency="0.99900001287460327 0.99900001287460327" numOctaves="3" seed="4935" />
<feDisplacementMap in="shape" scale="8" xChannelSelector="R" yChannelSelector="G" result="displacedImage" width="100%" height="100%" />
<feMerge result="effect1_texture_118_16">
<feMergeNode in="displacedImage"/>
</feMerge>
</filter>
<filter id="filter2_d_118_16" x="57.2224" y="54.2288" width="523.984" height="716" filterUnits="userSpaceOnUse" color-interpolation-filters="sRGB">
<feFlood flood-opacity="0" result="BackgroundImageFix"/>
<feColorMatrix in="SourceAlpha" type="matrix" values="0 0 0 0 0 0 0 0 0 0 0 0 0 0 0 0 0 0 127 0" result="hardAlpha"/>
<feOffset dx="5" dy="5"/>
<feGaussianBlur stdDeviation="2"/>
<feComposite in2="hardAlpha" operator="out"/>
<feColorMatrix type="matrix" values="0 0 0 0 0.531212 0 0 0 0 0.361116 0 0 0 0 0.239618 0 0 0 0.25 0"/>
<feBlend mode="normal" in2="BackgroundImageFix" result="effect1_dropShadow_118_16"/>
<feBlend mode="normal" in="SourceGraphic" in2="effect1_dropShadow_118_16" result="shape"/>
</filter>
<filter id="filter3_d_118_16" x="66.4736" y="45.2288" width="523.984" height="716" filterUnits="userSpaceOnUse" color-interpolation-filters="sRGB">
<feFlood flood-opacity="0" result="BackgroundImageFix"/>
<feColorMatrix in="SourceAlpha" type="matrix" values="0 0 0 0 0 0 0 0 0 0 0 0 0 0 0 0 0 0 127 0" result="hardAlpha"/>
<feOffset dx="5" dy="5"/>
<feGaussianBlur stdDeviation="2"/>
<feComposite in2="hardAlpha" operator="out"/>
<feColorMatrix type="matrix" values="0 0 0 0 0.531212 0 0 0 0 0.361116 0 0 0 0 0.239618 0 0 0 0.25 0"/>
<feBlend mode="normal" in2="BackgroundImageFix" result="effect1_dropShadow_118_16"/>
<feBlend mode="normal" in="SourceGraphic" in2="effect1_dropShadow_118_16" result="shape"/>
</filter>
</defs>
</svg>
