<svg width="593" height="808" viewBox="0 0 593 808" fill="none" xmlns="http://www.w3.org/2000/svg">
<g filter="url(#filter0_g_118_2)">
<path d="M591.457 56.5C591.457 26.1243 566.833 1.5 536.457 1.5H16.5C8.21572 1.5 1.5 8.21573 1.5 16.5V790.512C1.5 798.796 8.21573 805.512 16.5 805.512H536.457C566.833 805.512 591.457 780.887 591.457 750.512V56.5Z" fill="#CCB79E"/>
</g>
<g filter="url(#filter1_g_118_2)">
<g filter="url(#filter2_d_118_2)">
<rect width="514.984" height="707" rx="20" transform="matrix(-1 0 0 1 535.735 54.2288)" fill="white"/>
</g>
<g filter="url(#filter3_d_118_2)">
<rect width="514.984" height="707" rx="20" transform="matrix(-1 0 0 1 526.484 45.2288)" fill="white"/>
</g>
<path d="M504.897 88.2287C504.897 77.1831 495.943 68.2288 484.897 68.2288H53.0861C42.0404 68.2288 33.0861 77.1831 33.0861 88.2288V709.229C33.0861 720.274 42.0405 729.229 53.0861 729.229H484.897C495.943 729.229 504.897 720.274 504.897 709.229V88.2287Z" fill="white"/>
<path d="M488.961 728.975C488.854 727.599 487.652 726.569 486.275 726.675C486.065 726.691 485.853 726.702 485.641 726.711C485.603 726.713 485.565 726.715 485.527 726.716C485.318 726.723 485.108 726.729 484.897 726.729V731.729C485.085 731.729 485.273 731.726 485.46 731.721C485.863 731.711 486.264 731.691 486.662 731.66C488.038 731.553 489.068 730.351 488.961 728.975ZM479.5 726.729C478.119 726.729 477 727.848 477 729.229C477 730.609 478.119 731.729 479.5 731.729H484.897V726.729H479.5ZM425.523 726.729C424.143 726.729 423.023 727.848 423.023 729.229C423.023 730.609 424.143 731.729 425.523 731.729H457.909C459.29 731.729 460.409 730.609 460.409 729.229C460.409 727.848 459.29 726.729 457.909 726.729H425.523ZM371.547 726.729C370.166 726.729 369.047 727.848 369.047 729.229C369.047 730.609 370.166 731.729 371.547 731.729H382.343C383.723 731.729 384.843 730.609 384.843 729.229C384.843 727.848 383.723 726.729 382.343 726.729H371.547ZM317.57 726.729C316.19 726.729 315.07 727.848 315.07 729.229C315.07 730.609 316.19 731.729 317.57 731.729H349.956C351.337 731.729 352.456 730.609 352.456 729.229C352.456 727.848 351.337 726.729 349.956 726.729H317.57ZM263.594 726.729C262.213 726.729 261.094 727.848 261.094 729.229C261.094 730.609 262.213 731.729 263.594 731.729H274.39C275.77 731.729 276.89 730.609 276.89 729.229C276.89 727.848 275.77 726.729 274.39 726.729H263.594ZM209.618 726.729C208.237 726.729 207.118 727.848 207.118 729.229C207.118 730.609 208.237 731.729 209.618 731.729H242.004C243.384 731.729 244.504 730.609 244.504 729.229C244.504 727.848 243.384 726.729 242.004 726.729H209.618ZM155.642 726.729C154.261 726.729 153.142 727.848 153.142 729.229C153.142 730.609 154.261 731.729 155.642 731.729H166.436C167.817 731.729 168.936 730.609 168.936 729.229C168.936 727.848 167.817 726.729 166.436 726.729H155.642ZM101.665 726.729C100.284 726.729 99.165 727.848 99.165 729.229C99.165 730.609 100.284 731.729 101.665 731.729H134.051C135.431 731.729 136.551 730.609 136.551 729.229C136.551 727.848 135.431 726.729 134.051 726.729H101.665ZM51.4384 726.669C50.1782 726.706 49.1223 727.689 49.0224 728.975C48.9623 729.751 49.2648 730.472 49.7861 730.972C51.6366 731.464 53.5803 731.729 55.5859 731.729H58.4834C59.8641 731.729 60.9834 730.609 60.9834 729.229C60.9834 727.848 59.8641 726.729 58.4834 726.729H53.0859C52.5312 726.729 51.9818 726.708 51.4384 726.669ZM37.167 719.822C36.8406 719.918 36.5283 720.082 36.2529 720.318C36.1965 720.366 36.1438 720.417 36.0927 720.469C38.5012 724.637 42.2071 727.959 46.6591 729.886C47.1284 729.621 47.5167 729.205 47.7392 728.669C48.1348 727.715 47.897 726.656 47.2177 725.961C43.1713 724.876 39.6717 722.699 37.167 719.822ZM504.338 714.575C503.062 714.047 501.599 714.652 501.07 715.927C501.061 715.95 501.051 715.973 501.041 715.995C501.011 716.068 500.979 716.139 500.948 716.211C500.916 716.285 500.884 716.358 500.852 716.431C500.789 716.57 500.724 716.708 500.657 716.845C500.651 716.858 500.644 716.872 500.638 716.885C500.575 717.014 500.51 717.143 500.444 717.271C500.413 717.331 500.381 717.39 500.35 717.449C500.308 717.528 500.265 717.605 500.223 717.683C500.193 717.736 500.164 717.789 500.134 717.842C500.078 717.941 500.021 718.039 499.963 718.137C499.937 718.181 499.911 718.224 499.885 718.268C499.722 718.537 499.552 718.802 499.375 719.062C499.352 719.096 499.329 719.13 499.306 719.163C499.234 719.267 499.161 719.37 499.087 719.472C499.061 719.508 499.034 719.545 499.008 719.581C498.952 719.658 498.894 719.733 498.837 719.809C498.793 719.867 498.75 719.925 498.705 719.982C498.624 720.086 498.541 720.189 498.458 720.291C498.451 720.3 498.444 720.309 498.436 720.318C498.335 720.441 498.232 720.563 498.127 720.684C498.088 720.728 498.049 720.772 498.01 720.817C497.936 720.9 497.862 720.984 497.786 721.066C497.751 721.104 497.715 721.142 497.68 721.18C497.61 721.255 497.539 721.329 497.468 721.403C497.42 721.452 497.372 721.501 497.323 721.55C497.259 721.614 497.195 721.678 497.13 721.741C497.088 721.782 497.046 721.824 497.004 721.865C496.779 722.08 496.548 722.289 496.312 722.492C496.295 722.507 496.279 722.523 496.262 722.537C495.213 723.435 495.089 725.012 495.986 726.062C496.882 727.109 498.454 727.233 499.504 726.342C499.512 726.335 499.52 726.329 499.527 726.323C502.178 724.052 504.296 721.173 505.664 717.899C505.675 717.871 505.687 717.844 505.698 717.817C506.209 716.547 505.605 715.101 504.338 714.575ZM507.397 709.229V704.054C507.397 702.673 506.278 701.554 504.897 701.554C503.517 701.554 502.397 702.673 502.397 704.054V709.229C502.397 709.439 502.393 709.649 502.386 709.858C502.384 709.895 502.382 709.933 502.381 709.971C502.372 710.184 502.36 710.395 502.344 710.606L502.337 710.862C502.367 712.128 503.352 713.192 504.643 713.292C506.019 713.399 507.222 712.37 507.329 710.993C507.347 710.758 507.36 710.52 507.371 710.282C507.387 709.933 507.397 709.582 507.397 709.229ZM33.0859 709.229C33.0859 710.611 33.2124 711.964 33.4511 713.278C33.5077 713.271 33.5638 713.264 33.6191 713.253C33.2715 711.961 33.0859 710.614 33.0859 709.229ZM507.397 662.654V631.604C507.397 630.223 506.278 629.104 504.897 629.104C503.517 629.104 502.397 630.223 502.397 631.604V662.654C502.397 664.034 503.517 665.154 504.897 665.154C506.278 665.154 507.397 664.034 507.397 662.654ZM507.397 610.904V600.554C507.397 599.173 506.278 598.054 504.897 598.054C503.517 598.054 502.397 599.173 502.397 600.554V610.904C502.397 612.284 503.517 613.404 504.897 613.404C506.278 613.404 507.397 612.284 507.397 610.904ZM507.397 559.154V528.104C507.397 526.723 506.278 525.604 504.897 525.604C503.517 525.604 502.397 526.723 502.397 528.104V559.154C502.397 560.534 503.517 561.654 504.897 561.654C506.278 561.654 507.397 560.534 507.397 559.154ZM507.397 507.404V497.054C507.397 495.673 506.278 494.554 504.897 494.554C503.517 494.554 502.397 495.673 502.397 497.054V507.404C502.397 508.784 503.517 509.904 504.897 509.904C506.278 509.904 507.397 508.784 507.397 507.404ZM507.397 455.654V424.604C507.397 423.223 506.278 422.104 504.897 422.104C503.517 422.104 502.397 423.223 502.397 424.604V455.654C502.397 457.034 503.517 458.154 504.897 458.154C506.278 458.154 507.397 457.034 507.397 455.654ZM507.397 403.904V393.554C507.397 392.173 506.278 391.054 504.897 391.054C503.517 391.054 502.397 392.173 502.397 393.554V403.904C502.397 405.284 503.517 406.404 504.897 406.404C506.278 406.404 507.397 405.284 507.397 403.904ZM507.397 352.154V321.104C507.397 319.723 506.278 318.604 504.897 318.604C503.517 318.604 502.397 319.723 502.397 321.104V352.154C502.397 353.534 503.517 354.654 504.897 354.654C506.278 354.654 507.397 353.534 507.397 352.154ZM507.397 300.404V290.054C507.397 288.673 506.278 287.554 504.897 287.554C503.517 287.554 502.397 288.673 502.397 290.054V300.404C502.397 301.784 503.517 302.904 504.897 302.904C506.278 302.904 507.397 301.784 507.397 300.404ZM507.397 248.654V217.604C507.397 216.223 506.278 215.104 504.897 215.104C503.517 215.104 502.397 216.223 502.397 217.604V248.654C502.397 250.034 503.517 251.154 504.897 251.154C506.278 251.154 507.397 250.034 507.397 248.654ZM507.397 196.904V186.554C507.397 185.173 506.278 184.054 504.897 184.054C503.517 184.054 502.397 185.173 502.397 186.554V196.904C502.397 198.284 503.517 199.404 504.897 199.404C506.278 199.404 507.397 198.284 507.397 196.904ZM507.397 145.154V114.104C507.397 112.723 506.278 111.604 504.897 111.604C503.517 111.604 502.397 112.723 502.397 114.104V145.154C502.397 146.534 503.517 147.654 504.897 147.654C506.278 147.654 507.397 146.534 507.397 145.154ZM507.397 93.4036V88.2288C507.397 87.8752 507.387 87.5236 507.371 87.1741C507.36 86.9366 507.347 86.6997 507.329 86.4641C507.222 85.0877 506.019 84.0583 504.643 84.1653C503.266 84.2724 502.238 85.4747 502.345 86.8508C502.361 87.0614 502.372 87.273 502.381 87.4856C502.382 87.5233 502.384 87.5611 502.386 87.5989C502.393 87.8079 502.397 88.0179 502.397 88.2288V93.4036C502.397 94.7843 503.517 95.9036 504.897 95.9036C506.278 95.9036 507.397 94.7843 507.397 93.4036ZM33.4511 84.179C33.2123 85.4928 33.0859 86.8461 33.0859 88.2288C33.0859 86.8434 33.2714 85.4959 33.6191 84.2034C33.5639 84.1928 33.5077 84.1859 33.4511 84.179ZM41.3115 70.8362C37.6033 73.8832 34.8892 78.0934 33.7216 82.9084C33.8128 82.9429 33.9046 82.9711 33.997 82.9944C35.4458 78.9452 38.5305 75.5295 42.5742 73.3391C42.661 72.6631 42.4748 71.9546 41.997 71.3958C41.7979 71.1628 41.5645 70.9768 41.3115 70.8362ZM493.486 67.428C492.217 66.9167 490.77 67.5213 490.244 68.7883C489.715 70.0637 490.32 71.527 491.596 72.0559C491.619 72.0655 491.642 72.0755 491.665 72.0852C491.73 72.1124 491.794 72.1412 491.858 72.1692C491.971 72.2179 492.082 72.2676 492.193 72.3186C492.301 72.368 492.408 72.4175 492.515 72.469C492.555 72.4887 492.596 72.5085 492.637 72.5286C492.738 72.5788 492.84 72.6297 492.94 72.6819C493 72.7129 493.06 72.7449 493.119 72.7766C493.197 72.8183 493.275 72.8607 493.353 72.9036C493.412 72.9366 493.472 72.9695 493.531 73.0032C493.624 73.0557 493.715 73.1092 493.807 73.1633C493.85 73.1892 493.894 73.2152 493.937 73.2415C494.212 73.4076 494.482 73.5813 494.747 73.762C494.774 73.7803 494.8 73.7992 494.827 73.8176C494.929 73.8878 495.03 73.9592 495.13 74.0315C495.17 74.0606 495.211 74.089 495.251 74.1184C495.334 74.1794 495.416 74.2415 495.498 74.304C495.534 74.3314 495.571 74.3582 495.606 74.386L495.702 74.4612C495.929 74.6399 496.152 74.8244 496.37 75.0139C496.409 75.0478 496.448 75.0822 496.486 75.1165C496.57 75.1904 496.653 75.2646 496.735 75.3401C496.774 75.3753 496.812 75.411 496.85 75.4465C496.924 75.5165 496.999 75.5872 497.072 75.6584C497.1 75.6849 497.127 75.7109 497.154 75.7375L497.271 75.8547C497.318 75.9016 497.365 75.9489 497.411 75.9963C497.452 76.0383 497.494 76.0799 497.534 76.1223C497.75 76.3471 497.959 76.5777 498.162 76.8137C498.177 76.8306 498.192 76.8476 498.206 76.8645C499.103 77.9136 500.681 78.037 501.73 77.1399C502.778 76.2447 502.902 74.6718 502.012 73.6223C502.005 73.6146 501.999 73.6066 501.992 73.5989C499.721 70.9477 496.842 68.8306 493.568 67.4622C493.541 67.4507 493.514 67.4393 493.486 67.428ZM479.5 65.7288C478.119 65.7288 477 66.848 477 68.2288C477 69.6095 478.119 70.7288 479.5 70.7288H484.897C485.108 70.7288 485.318 70.7331 485.527 70.7405C485.565 70.7418 485.603 70.7438 485.641 70.7454C485.853 70.7542 486.065 70.7651 486.275 70.7815C487.651 70.888 488.854 69.8597 488.961 68.4836C489.068 67.1072 488.038 65.9042 486.662 65.7971C486.079 65.7519 485.491 65.7288 484.897 65.7288H479.5ZM55.5859 65.7288C53.5803 65.7288 51.6366 65.9932 49.7861 66.4856C49.2647 66.986 48.9621 67.707 49.0224 68.4836C49.1225 69.7689 50.1783 70.7501 51.4384 70.7874C51.9817 70.7486 52.5312 70.7288 53.0859 70.7288H58.4834C59.8641 70.7288 60.9834 69.6095 60.9834 68.2288C60.9834 66.848 59.8641 65.7288 58.4834 65.7288H55.5859ZM403.933 65.7288C402.552 65.7289 401.433 66.8481 401.433 68.2288C401.433 69.6094 402.552 70.7286 403.933 70.7288H436.318C437.699 70.7288 438.818 69.6095 438.818 68.2288C438.818 66.848 437.699 65.7288 436.318 65.7288H403.933ZM371.547 65.7288C370.166 65.7288 369.047 66.8481 369.047 68.2288C369.047 69.6094 370.166 70.7287 371.547 70.7288H382.342C383.722 70.7288 384.842 69.6095 384.842 68.2288C384.842 66.848 383.722 65.7288 382.342 65.7288H371.547ZM295.98 65.7288C294.6 65.7288 293.48 66.848 293.48 68.2288C293.48 69.6095 294.6 70.7288 295.98 70.7288H328.366C329.747 70.7286 330.866 69.6094 330.866 68.2288C330.866 66.8482 329.747 65.7289 328.366 65.7288H295.98ZM263.594 65.7288C262.213 65.729 261.094 66.8482 261.094 68.2288C261.094 69.6093 262.213 70.7285 263.594 70.7288H274.39C275.77 70.7287 276.89 69.6094 276.89 68.2288C276.89 66.8481 275.77 65.7289 274.39 65.7288H263.594ZM188.027 65.7288C186.647 65.7288 185.527 66.848 185.527 68.2288C185.527 69.6095 186.647 70.7288 188.027 70.7288H220.413C221.794 70.7287 222.913 69.6095 222.913 68.2288C222.913 66.8481 221.794 65.7288 220.413 65.7288H188.027ZM155.642 65.7288C154.261 65.7288 153.142 66.848 153.142 68.2288C153.142 69.6095 154.261 70.7288 155.642 70.7288H166.436C167.817 70.7288 168.936 69.6095 168.936 68.2288C168.936 66.848 167.817 65.7288 166.436 65.7288H155.642ZM80.0742 65.7288C78.6935 65.7288 77.5742 66.8481 77.5742 68.2288C77.5742 69.6094 78.6935 70.7287 80.0742 70.7288H112.46C113.841 70.7288 114.96 69.6095 114.96 68.2288C114.96 66.848 113.841 65.7288 112.46 65.7288H80.0742Z" fill="#875C3D" fill-opacity="0.25"/>
</g>
<defs>
<filter id="filter0_g_118_2" x="-2.55386e-09" y="0" width="592.957" height="807.012" filterUnits="userSpaceOnUse" color-interpolation-filters="sRGB">
<feFlood flood-opacity="0" result="BackgroundImageFix"/>
<feBlend mode="normal" in="SourceGraphic" in2="BackgroundImageFix" result="shape"/>
<feTurbulence type="fractalNoise" baseFrequency="0.99900001287460327 0.99900001287460327" numOctaves="3" seed="9388" />
<feDisplacementMap in="shape" scale="3" xChannelSelector="R" yChannelSelector="G" result="displacedImage" width="100%" height="100%" />
<feMerge result="effect1_texture_118_2">
<feMergeNode in="displacedImage"/>
</feMerge>
</filter>
<filter id="filter1_g_118_2" x="7.50003" y="41.2288" width="532.235" height="724" filterUnits="userSpaceOnUse" color-interpolation-filters="sRGB">
<feFlood flood-opacity="0" result="BackgroundImageFix"/>
<feBlend mode="normal" in="SourceGraphic" in2="BackgroundImageFix" result="shape"/>
<feTurbulence type="fractalNoise" baseFrequency="0.99900001287460327 0.99900001287460327" numOctaves="3" seed="4935" />
<feDisplacementMap in="shape" scale="8" xChannelSelector="R" yChannelSelector="G" result="displacedImage" width="100%" height="100%" />
<feMerge result="effect1_texture_118_2">
<feMergeNode in="displacedImage"/>
</feMerge>
</filter>
<filter id="filter2_d_118_2" x="20.7512" y="54.2288" width="523.984" height="716" filterUnits="userSpaceOnUse" color-interpolation-filters="sRGB">
<feFlood flood-opacity="0" result="BackgroundImageFix"/>
<feColorMatrix in="SourceAlpha" type="matrix" values="0 0 0 0 0 0 0 0 0 0 0 0 0 0 0 0 0 0 127 0" result="hardAlpha"/>
<feOffset dx="5" dy="5"/>
<feGaussianBlur stdDeviation="2"/>
<feComposite in2="hardAlpha" operator="out"/>
<feColorMatrix type="matrix" values="0 0 0 0 0.531212 0 0 0 0 0.361116 0 0 0 0 0.239618 0 0 0 0.25 0"/>
<feBlend mode="normal" in2="BackgroundImageFix" result="effect1_dropShadow_118_2"/>
<feBlend mode="normal" in="SourceGraphic" in2="effect1_dropShadow_118_2" result="shape"/>
</filter>
<filter id="filter3_d_118_2" x="11.5" y="45.2288" width="523.984" height="716" filterUnits="userSpaceOnUse" color-interpolation-filters="sRGB">
<feFlood flood-opacity="0" result="BackgroundImageFix"/>
<feColorMatrix in="SourceAlpha" type="matrix" values="0 0 0 0 0 0 0 0 0 0 0 0 0 0 0 0 0 0 127 0" result="hardAlpha"/>
<feOffset dx="5" dy="5"/>
<feGaussianBlur stdDeviation="2"/>
<feComposite in2="hardAlpha" operator="out"/>
<feColorMatrix type="matrix" values="0 0 0 0 0.531212 0 0 0 0 0.361116 0 0 0 0 0.239618 0 0 0 0.25 0"/>
<feBlend mode="normal" in2="BackgroundImageFix" result="effect1_dropShadow_118_2"/>
<feBlend mode="normal" in="SourceGraphic" in2="effect1_dropShadow_118_2" result="shape"/>
</filter>
</defs>
</svg>
